<svg width="24" height="21" viewBox="0 0 24 21" fill="none" xmlns="http://www.w3.org/2000/svg">
<path d="M3.677 15.25H20.627V16.375C20.627 17.1706 20.3109 17.9337 19.7483 18.4963C19.1857 19.0589 18.4226 19.375 17.627 19.375H6.677C5.88135 19.375 5.11829 19.0589 4.55568 18.4963C3.99307 17.9337 3.677 17.1706 3.677 16.375V15.25Z" stroke="black" stroke-width="1.5" stroke-linecap="round" stroke-linejoin="round"/>
<path d="M18.6019 10.6749H20.552C20.8537 10.6649 21.1544 10.7156 21.436 10.8242C21.7177 10.9327 21.9747 11.0969 22.1917 11.3068C22.4086 11.5168 22.5811 11.7682 22.6988 12.0462C22.8165 12.3242 22.8771 12.623 22.877 12.9249C22.877 13.5416 22.632 14.1329 22.196 14.5689C21.76 15.005 21.1686 15.2499 20.552 15.2499H3.75195C3.45006 15.2501 3.15124 15.1895 2.87325 15.0718C2.59526 14.954 2.34379 14.7816 2.13385 14.5646C1.9239 14.3477 1.75976 14.0907 1.6512 13.809C1.54265 13.5273 1.49189 13.2266 1.50195 12.9249C1.49147 12.6266 1.54253 12.3294 1.65189 12.0516C1.76126 11.7739 1.92661 11.5217 2.13767 11.3106C2.34873 11.0996 2.60095 10.9342 2.87867 10.8249C3.1564 10.7155 3.45365 10.6644 3.75195 10.6749H10.352" stroke="black" stroke-width="1.5" stroke-linecap="round" stroke-linejoin="round"/>
<path d="M22.877 9.17505C22.8713 9.5707 22.7096 9.94811 22.427 10.2251C22.2955 10.3723 22.1333 10.4888 21.9519 10.5666C21.7705 10.6443 21.5742 10.6814 21.377 10.6751H17.477L14.927 13.6001L12.377 10.6751H2.92699C2.73338 10.6753 2.54173 10.6361 2.36376 10.5599C2.18579 10.4836 2.02523 10.3719 1.89187 10.2315C1.75852 10.0912 1.65518 9.92508 1.58815 9.74344C1.52111 9.5618 1.49178 9.3684 1.50197 9.17505C1.49178 8.9817 1.52111 8.78831 1.58815 8.60667C1.65518 8.42503 1.75852 8.25896 1.89187 8.11859C2.02523 7.97822 2.18579 7.86649 2.36376 7.79023C2.54173 7.71398 2.73338 7.67478 2.92699 7.67505H21.377C21.7748 7.67505 22.1564 7.83308 22.4377 8.11439C22.719 8.39569 22.877 8.77723 22.877 9.17505Z" stroke="black" stroke-width="1.5" stroke-linecap="round" stroke-linejoin="round"/>
<path d="M10.127 1H14.252C15.9626 1 17.6032 1.67955 18.8128 2.88916C20.0224 4.09877 20.702 5.73936 20.702 7.45H3.677C3.677 5.73936 4.35654 4.09877 5.56615 2.88916C6.77576 1.67955 8.41634 1 10.127 1Z" stroke="black" stroke-width="1.5" stroke-linecap="round" stroke-linejoin="round"/>
<path d="M7.95197 4.375L8.85197 5.35" stroke="black" stroke-width="1.5" stroke-linecap="round" stroke-linejoin="round"/>
<path d="M16.052 4L17.027 5.05" stroke="black" stroke-width="1.5" stroke-linecap="round" stroke-linejoin="round"/>
<path d="M11.552 4.4501L12.602 3.4751" stroke="black" stroke-width="1.5" stroke-linecap="round" stroke-linejoin="round"/>
</svg>
