<svg width="19" height="23" viewBox="0 0 19 23" fill="none" xmlns="http://www.w3.org/2000/svg">
<path d="M9.51051 19.5001C11.0845 19.5001 12.3605 18.2241 12.3605 16.6501C12.3605 15.076 11.0845 13.8 9.51051 13.8C7.9365 13.8 6.66052 15.076 6.66052 16.6501C6.66052 18.2241 7.9365 19.5001 9.51051 19.5001Z" stroke="black" stroke-width="1.5" stroke-linecap="round" stroke-linejoin="round"/>
<path d="M17.6855 8.8501L16.1855 22.2001H2.83551L1.33551 8.8501H4.71051C5.11971 9.45908 5.6573 9.97108 6.28551 10.3501L6.66051 10.5751C7.53339 11.0581 8.51293 11.3159 9.51051 11.3251H9.58551C10.6487 11.3033 11.6859 10.9922 12.5855 10.4251C13.2618 10.0231 13.8488 9.48712 14.3105 8.8501H17.6855Z" stroke="black" stroke-width="1.5" stroke-linecap="round" stroke-linejoin="round"/>
<path d="M3.66052 8.85006V2.92505H6.66052V10.3501" stroke="black" stroke-width="1.5" stroke-linecap="round" stroke-linejoin="round"/>
<path d="M6.66052 10.575V1.5H9.58552V11.325" stroke="black" stroke-width="1.5" stroke-linecap="round" stroke-linejoin="round"/>
<path d="M9.58551 11.325V4.94995H12.5855V10.425" stroke="black" stroke-width="1.5" stroke-linecap="round" stroke-linejoin="round"/>
<path d="M12.5855 10.4249V2.3999H15.5855V8.84991" stroke="black" stroke-width="1.5" stroke-linecap="round" stroke-linejoin="round"/>
</svg>
