<svg width="11" height="24" viewBox="0 0 11 24" fill="none" xmlns="http://www.w3.org/2000/svg">
<path d="M9.88133 3.88612C8.74816 3.02108 6.96463 2.40344 5.19068 2.44811V2.2047L5.98838 0.609322C6.05356 0.478956 6.04661 0.323976 5.96991 0.199765C5.89322 0.0755527 5.75773 0 5.61175 0H3.92748C3.78151 0 3.64601 0.0756666 3.56932 0.199878C3.49263 0.32409 3.48568 0.47907 3.55086 0.609436L4.34855 2.20482V2.51614C3.12113 2.70372 1.94955 3.25139 1.06024 4.30719C-0.614565 6.29651 0.0203964 7.82614 0.755525 9.59713C1.04235 10.2884 1.33898 11.003 1.54911 11.8365C1.57715 11.9476 1.60153 12.0526 1.62592 12.1578L1.62193 12.2189L1.64085 12.2202C1.9883 13.7428 1.96266 14.6429 1.84358 15.332L1.7948 15.341L1.81828 15.4672C1.77782 15.6733 1.73065 15.8629 1.68438 16.0461C1.63093 16.2575 1.58011 16.4593 1.54296 16.6682C1.54273 16.669 1.5425 16.6698 1.5425 16.6707C1.54 16.6843 1.3351 18.1567 1.54296 19.3204C1.68187 20.0977 3.05436 20.4161 4.34855 20.5073V21.7953L3.55086 23.3907C3.48568 23.521 3.49263 23.676 3.56932 23.8002C3.64601 23.9244 3.78151 24 3.92748 24H5.61175C5.75773 24 5.89322 23.9243 5.96991 23.8001C6.04661 23.6759 6.05356 23.5209 5.98838 23.3906L5.19068 21.7952V20.5368C5.19422 20.5368 5.19809 20.5369 5.20162 20.5369C5.52788 20.5369 5.82599 20.5238 6.06906 20.5024C7.93075 20.337 8.32151 19.728 8.32151 19.2462C8.32151 18.4498 8.41222 16.365 9.25116 14.2117C9.79336 12.8213 12.371 5.78747 9.88133 3.88612ZM4.93041 0.842133L4.76962 1.16372L4.60883 0.842133H4.93041ZM1.70466 4.84996C2.99191 3.32033 6.46277 2.33598 9.37024 4.55561C9.47656 4.63675 9.56647 4.74124 9.64818 4.85725C7.89782 5.23445 2.4554 5.82212 1.0942 5.78508C1.23118 5.48709 1.42775 5.17884 1.70466 4.84996ZM4.60883 23.1581L4.76962 22.8365L4.93041 23.1581H4.60883ZM7.48097 19.2376C7.4494 19.3103 7.06822 19.5985 5.78382 19.6799C4.07802 19.7868 2.53358 19.4328 2.37199 19.1725C2.34282 19.009 2.32379 18.8361 2.31125 18.6616C3.42471 18.7834 4.09728 18.8876 4.5498 18.9583C4.96038 19.0224 5.21325 19.0595 5.44845 19.0595C5.78747 19.0595 6.09014 18.9825 6.77558 18.7979C6.975 18.7445 7.2118 18.6808 7.49533 18.6069C7.48473 18.8446 7.48063 19.0577 7.48097 19.2376ZM7.56119 17.7198L7.54763 17.7234C7.13887 17.8283 6.8174 17.9146 6.5569 17.985C5.53506 18.2596 5.53551 18.2596 4.67982 18.1264C4.20519 18.052 3.49343 17.9415 2.29712 17.8132C2.30065 17.7002 2.30567 17.5918 2.31159 17.4912C2.60993 17.5369 2.88764 17.563 3.13811 17.563C4.0444 17.563 4.67333 17.3002 5.28618 17.044C5.9706 16.7581 6.62482 16.4934 7.7164 16.6111C7.64677 17.0049 7.59663 17.3769 7.56119 17.7198ZM7.88745 15.7834C6.53229 15.6176 5.69676 15.9601 4.96163 16.2671C4.22092 16.5771 3.57251 16.842 2.40845 16.6553C2.43717 16.5218 2.46623 16.3891 2.50087 16.2523C2.51694 16.1886 2.53335 16.1234 2.54953 16.0571L8.08676 15.0269C8.01166 15.2838 7.94568 15.5362 7.88745 15.7834ZM8.46657 13.9059C8.43945 13.9755 8.41506 14.0447 8.38942 14.1141L2.7183 15.1692C2.76662 14.7755 2.78405 14.3131 2.73733 13.7406L3.16512 13.5268C4.23813 12.9873 4.23767 12.9877 5.02488 13.0646C5.64845 13.1252 6.66493 13.2223 8.72708 13.2119C8.64252 13.4455 8.55557 13.6772 8.46657 13.9059ZM9.01778 12.3676C6.80373 12.3912 5.74291 12.2885 5.1067 12.2263C4.11471 12.1309 4.02856 12.1507 2.78679 12.7744L2.62486 12.8552C2.59375 12.6688 2.5558 12.4714 2.51193 12.2648C3.50984 12.2785 4.31448 12.1257 5.0357 11.9866C6.26666 11.7493 7.34057 11.5515 9.06712 12.2133C9.05048 12.2647 9.03476 12.3162 9.01778 12.3676ZM9.31577 11.4034C7.39391 10.678 6.16854 10.9114 4.87662 11.1597C4.10913 11.3075 3.316 11.4575 2.3043 11.4152C2.24367 11.1949 2.17906 10.9817 2.10978 10.7755C3.51542 10.3639 4.42684 10.0544 5.03514 9.84715C6.38357 9.38745 6.38357 9.38791 7.94306 9.65342C8.38715 9.72909 8.95829 9.82584 9.69695 9.93786C9.58756 10.4191 9.4597 10.9094 9.31577 11.4034ZM9.86777 9.11191C9.11293 8.99795 8.53381 8.89972 8.08436 8.82314C6.34654 8.52663 6.28455 8.53164 4.76358 9.04969C4.1546 9.25708 3.23953 9.56818 1.82021 9.98298C1.72347 9.73764 1.62649 9.49901 1.53327 9.27418C1.51607 9.23258 1.49977 9.19293 1.48279 9.15202C2.62326 8.69631 3.41662 8.34852 4.00623 8.08972C5.59192 7.39357 5.59238 7.39436 7.32941 7.64974C7.96129 7.74284 8.8212 7.86933 10.0328 8.00836C9.99301 8.3631 9.93797 8.73141 9.86777 9.11191ZM7.45248 6.81661C5.51147 6.53047 5.44093 6.53992 3.66789 7.3187C3.08398 7.5751 2.2986 7.91913 1.17112 8.36948C0.939906 7.74227 0.802817 7.17956 0.862986 6.60807C0.980247 6.61696 1.12144 6.62129 1.28485 6.62129C3.28158 6.62129 8.44333 5.99248 9.97854 5.64377C10.0816 6.07464 10.1182 6.58984 10.0975 7.16771C8.9159 7.03176 8.07297 6.90811 7.45248 6.81661Z" fill="black"/>
</svg>
