<svg width="23" height="24" viewBox="0 0 23 24" fill="none" xmlns="http://www.w3.org/2000/svg">
<path d="M10.182 8.33273C10.3865 8.40056 10.6082 8.28951 10.6756 8.08537L12.3861 2.94019C12.4539 2.736 12.3429 2.5147 12.1383 2.44687C11.9338 2.37872 11.7124 2.48934 11.6446 2.69423L9.93492 7.83867C9.86682 8.04365 9.97744 8.26495 10.182 8.33273Z" fill="black"/>
<path d="M11.5363 8.73443C11.7405 8.80221 11.9618 8.69121 12.0296 8.48703L13.6007 3.76062C13.6689 3.55568 13.5582 3.33514 13.3533 3.26735C13.1488 3.19878 12.9279 3.30982 12.8601 3.51401L11.2885 8.24037C11.2203 8.44531 11.3313 8.66623 11.5363 8.73443Z" fill="black"/>
<path d="M6.32813 3.87904C6.67908 4.04554 6.7681 4.41032 6.86724 4.75419C7.04532 5.36633 7.54083 6.37897 8.56575 6.84618C8.85338 6.97771 9.23339 7.11965 9.63394 7.25788L9.98082 6.21435L9.30797 5.89391C9.05499 5.77358 8.99611 5.58697 9.09075 5.38724C9.17719 5.20546 9.33441 5.06085 9.59517 5.17302L10.2271 5.4733L10.5221 4.58582L9.99385 4.33508C9.76172 4.23079 9.75464 3.99083 9.84146 3.80863C9.9361 3.61007 10.1186 3.53704 10.3712 3.65704L10.768 3.84557L11.1331 2.74724C10.9569 2.6459 10.79 2.5535 10.6417 2.4801C9.63239 1.98125 8.53369 2.23532 7.94728 2.48347C7.61794 2.62316 7.27894 2.78488 6.92757 2.61758L2.17772 0.0847854C1.98282 -0.0117302 1.75707 -0.0270115 1.55105 0.0449417C1.34536 0.115723 1.17736 0.266567 1.08347 0.462973L1.02647 0.583301C0.932956 0.779989 0.922128 1.00579 0.997034 1.21068C1.07157 1.41486 1.22508 1.58066 1.42364 1.67118L6.32813 3.87904Z" fill="black"/>
<path d="M12.9319 9.26793C13.1372 9.33646 13.3581 9.22508 13.4259 9.02052L14.9225 4.51911C14.9907 4.31497 14.8797 4.09368 14.6752 4.0251C14.4706 3.95732 14.2489 4.06757 14.1811 4.27251L12.6845 8.77424C12.6167 8.9788 12.7274 9.2001 12.9319 9.26793Z" fill="black"/>
<path d="M10.5613 15.1546C10.9618 14.8696 11.5132 14.5809 12.2319 14.3204C12.4353 14.247 12.5396 14.0238 12.4666 13.8208C12.3932 13.6181 12.1697 13.5127 11.9666 13.5861C10.9368 13.9594 10.1895 14.3961 9.68128 14.8632C9.4276 15.0965 9.23344 15.339 9.09933 15.589C8.96597 15.8386 8.89294 16.0987 8.89294 16.3558C8.89219 16.6322 8.98125 16.9005 9.1411 17.1196C9.30132 17.339 9.52594 17.5089 9.78975 17.6292C10.128 17.782 10.5133 17.8409 10.9246 17.8409C11.4563 17.8409 12.0368 17.7403 12.6254 17.5681C13.2136 17.3956 13.8094 17.1513 14.3649 16.8543C14.5545 16.7526 14.6264 16.516 14.5251 16.326C14.423 16.1359 14.1864 16.064 13.9964 16.1658C13.4893 16.4373 12.939 16.6627 12.4059 16.8185C11.8727 16.975 11.356 17.0607 10.9245 17.0599C10.5903 17.0606 10.3095 17.0085 10.1127 16.9176C9.94917 16.8438 9.83963 16.7514 9.77297 16.6598C9.70589 16.5659 9.67496 16.4731 9.67425 16.3557C9.67425 16.2473 9.70481 16.114 9.78825 15.9571C9.91336 15.7224 10.1604 15.4404 10.5613 15.1546Z" fill="black"/>
<path d="M8.80533 13.8729C8.36236 14.124 8.02144 14.5339 7.78228 15.0059C7.54458 15.4798 7.4086 16.0212 7.40747 16.5636C7.40747 16.966 7.48388 17.3702 7.66228 17.7395C7.83891 18.1083 8.12316 18.4392 8.514 18.6716C9.32878 19.1589 10.2349 19.3363 11.1116 19.3363C12.1156 19.3363 13.0884 19.1068 13.898 18.8214C14.3026 18.678 14.6662 18.5208 14.9732 18.368C15.2806 18.2149 15.5284 18.0688 15.7113 17.9384C15.8872 17.8132 15.9278 17.5692 15.8023 17.3937C15.6767 17.2186 15.4334 17.1776 15.2575 17.3028C15.1234 17.3989 14.9025 17.5308 14.6249 17.6694C13.7907 18.086 12.4361 18.5576 11.1116 18.5554C10.3378 18.555 9.57994 18.3989 8.9146 18.0014C8.65824 17.8476 8.48461 17.6441 8.36541 17.4C8.24728 17.1553 8.18878 16.8676 8.18878 16.5636C8.18841 16.1546 8.29646 15.7212 8.48016 15.3572C8.66307 14.9917 8.92125 14.7022 9.18807 14.5543C9.37617 14.4489 9.4425 14.2105 9.33708 14.0227C9.23166 13.8349 8.99349 13.7678 8.80533 13.8729Z" fill="black"/>
<path d="M8.7938 20.4528C9.6563 20.7356 10.606 20.8701 11.5713 20.8701C13.1734 20.8689 14.8208 20.5016 16.1859 19.7892C16.8447 19.4453 17.3238 19.0113 17.6382 18.5411C17.9527 18.0713 18.1006 17.5669 18.1006 17.0933C18.1006 16.5993 17.9396 16.1358 17.6378 15.7886C17.3383 15.4406 16.8871 15.2193 16.3797 15.2212C16.0801 15.2212 15.7657 15.2954 15.4486 15.4443C15.2534 15.5356 15.1692 15.7685 15.2609 15.9633C15.3526 16.1589 15.585 16.2431 15.7806 16.1515V16.1511C16.0094 16.0441 16.2091 16.0028 16.3797 16.0024C16.6674 16.0047 16.882 16.1138 17.0485 16.3016C17.2132 16.4905 17.3194 16.7677 17.3194 17.0933C17.3194 17.4052 17.2229 17.7569 16.9889 18.1068C16.7553 18.4566 16.3824 18.8049 15.8243 19.0971C14.5926 19.7423 13.0531 20.0896 11.5714 20.0888C10.6783 20.0888 9.80691 19.9636 9.03755 19.7107C8.26707 19.4584 7.60092 19.0792 7.10246 18.5814C6.95044 18.4287 6.70266 18.4287 6.55032 18.5814C6.39792 18.7338 6.39792 18.9808 6.55032 19.1336C7.15519 19.7378 7.93205 20.1704 8.7938 20.4528Z" fill="black"/>
<path d="M7.27669 15.0974C7.42866 14.9447 7.42866 14.6976 7.27669 14.5452C7.12392 14.3925 6.87657 14.3925 6.7238 14.5452C6.43767 14.834 6.21783 15.2252 6.05428 15.6514C5.89294 16.0784 5.7931 16.5374 5.7916 16.9696C5.7931 17.2512 5.83374 17.5243 5.95702 17.7732C6.05241 17.9662 6.28711 18.0448 6.4801 17.9479C6.67346 17.8518 6.75169 17.6178 6.65522 17.4249C6.60755 17.3317 6.57253 17.1697 6.57324 16.9696C6.57249 16.6634 6.65147 16.2774 6.78483 15.9287C6.91566 15.5802 7.10419 15.2669 7.27669 15.0974Z" fill="black"/>
<path d="M21.7506 15.0254C20.9447 13.8585 19.6221 12.9092 17.9284 12.2442C17.554 12.0966 17.158 11.9659 16.7474 11.8478V11.8635C16.7474 12.1757 16.7108 12.4801 16.646 12.7774C17.5462 13.0486 18.3457 13.3929 19.023 13.7953C19.8837 14.3053 20.5483 14.904 20.9917 15.5478C21.4358 16.1935 21.6631 16.8779 21.6635 17.5992C21.6631 18.3191 21.4358 19.0038 20.9917 19.6495C20.3278 20.6155 19.1605 21.4806 17.5916 22.0958C16.0238 22.7112 14.0608 23.0782 11.8317 23.0782C8.85783 23.0797 6.38621 22.4244 4.69289 21.4039C3.84567 20.895 3.19444 20.2966 2.75967 19.6528C2.32524 19.0076 2.10244 18.322 2.10136 17.5992C2.10249 16.8757 2.32528 16.1891 2.75967 15.5441C3.41053 14.5792 4.55433 13.7156 6.10458 13.1016C7.65338 12.4865 9.6015 12.1195 11.8317 12.1195C12.5631 12.1195 13.2669 12.1593 13.9364 12.2335C13.9662 12.1165 13.9822 11.9936 13.9822 11.8621V11.3155C13.293 11.241 12.5773 11.1978 11.8317 11.1978C8.72377 11.1985 6.09975 11.8732 4.21828 13.0032C3.27755 13.5695 2.52122 14.2506 1.99632 15.0278C1.47057 15.805 1.17928 16.6816 1.17999 17.5993C1.17924 18.5158 1.47057 19.3932 1.99632 20.1693C2.78616 21.3354 4.0883 22.2866 5.76413 22.9531C7.44174 23.6184 9.50053 23.9999 11.8317 23.9999C14.9385 23.9991 17.5868 23.324 19.4932 22.1959C20.4459 21.6307 21.2145 20.9497 21.7506 20.1725C22.2871 19.3961 22.5863 18.5186 22.5855 17.5991C22.5863 16.6789 22.2871 15.8007 21.7506 15.0254Z" fill="black"/>
<path d="M14.7687 6.22758V12.4778C14.7676 12.8243 14.6904 13.1283 14.5436 13.4145C14.3231 13.8421 13.9323 14.2364 13.3816 14.5948C12.8325 14.9535 12.129 15.2732 11.3183 15.5597C11.1149 15.6313 11.0083 15.8541 11.0802 16.0582C11.1518 16.2613 11.3749 16.3682 11.5784 16.2963C12.7098 15.8958 13.6771 15.4282 14.3887 14.8161C14.7437 14.5098 15.0351 14.1645 15.2374 13.7729C15.4404 13.3817 15.5499 12.9451 15.5496 12.4778V6.22758C15.5496 6.01149 15.3745 5.83716 15.1591 5.83716C14.9434 5.83716 14.7687 6.01153 14.7687 6.22758Z" fill="black"/>
</svg>
