<svg width="23" height="21" viewBox="0 0 23 21" fill="none" xmlns="http://www.w3.org/2000/svg">
<path d="M1.08545 11H21.6355V12.95C21.6355 14.8795 20.869 16.7299 19.5047 18.0942C18.1403 19.4585 16.2899 20.225 14.3605 20.225H8.36046C6.43101 20.225 4.58057 19.4585 3.21625 18.0942C1.85192 16.7299 1.08545 14.8795 1.08545 12.95V11Z" stroke="black" stroke-width="1.5" stroke-linecap="round" stroke-linejoin="round"/>
<path d="M1.7605 2.2251H2.06047C3.43297 2.2251 4.74924 2.77032 5.71974 3.74082C6.69024 4.71132 7.23549 6.0276 7.23549 7.40009H6.93547C5.56298 7.40009 4.2467 6.85487 3.2762 5.88437C2.3057 4.91387 1.7605 3.59759 1.7605 2.2251Z" stroke="black" stroke-width="1.5" stroke-linejoin="round"/>
<path d="M9.33545 3.65001C9.45747 2.98106 9.80876 2.37552 10.3289 1.93752C10.849 1.49951 11.5055 1.2564 12.1854 1.25C12.9552 1.26902 13.6882 1.58331 14.2327 2.12778C14.7772 2.67226 15.0914 3.40525 15.1105 4.17502C15.0973 4.48001 15.0469 4.78223 14.9604 5.075L15.8605 4.92502C16.6302 4.94403 17.3632 5.2583 17.9077 5.80278C18.4521 6.34726 18.7664 7.08024 18.7854 7.85001" stroke="black" stroke-width="1.5" stroke-linecap="round" stroke-linejoin="round"/>
<path d="M14.8105 8.07495C14.0148 8.07495 13.2518 7.75888 12.6892 7.19627C12.1266 6.63366 11.8105 5.8706 11.8105 5.07495" stroke="black" stroke-width="1.5" stroke-linecap="round" stroke-linejoin="round"/>
</svg>
