<svg width="20" height="21" viewBox="0 0 20 21" fill="none" xmlns="http://www.w3.org/2000/svg">
<path fill-rule="evenodd" clip-rule="evenodd" d="M17.9781 12.6551C17.9781 13.3371 17.5879 13.928 17.0186 14.2168V17.2951C17.0186 18.8139 15.7874 20.0451 14.2686 20.0451H3.87675C2.35797 20.0451 1.12676 18.8139 1.12676 17.2951V14.2168C0.557457 13.928 0.167297 13.3371 0.167297 12.6551V11.9551C0.167297 9.88401 1.84623 8.20508 3.9173 8.20508H14.2281C16.2992 8.20508 17.9781 9.88401 17.9781 11.9551V12.6551ZM2.62676 14.4051H15.5186V17.2951C15.5186 17.9854 14.959 18.5451 14.2686 18.5451H3.87675C3.1864 18.5451 2.62676 17.9854 2.62676 17.2951V14.4051ZM16.2281 12.9051C16.3662 12.9051 16.4781 12.7931 16.4781 12.6551V11.9551C16.4781 10.7124 15.4707 9.70508 14.2281 9.70508H13.4511V11.0251C13.4511 11.4393 13.1153 11.7751 12.7011 11.7751C12.2869 11.7751 11.9511 11.4393 11.9511 11.0251V9.70508H10.3328V11.0251C10.3328 11.4393 9.99705 11.7751 9.58284 11.7751C9.16862 11.7751 8.83284 11.4393 8.83284 11.0251V9.70508H7.21459V11.0251C7.21459 11.4393 6.87881 11.7751 6.46459 11.7751C6.05038 11.7751 5.71459 11.4393 5.71459 11.0251V9.70508H3.9173C2.67466 9.70508 1.6673 10.7124 1.6673 11.9551V12.6551C1.6673 12.7931 1.77923 12.9051 1.9173 12.9051H16.2281Z" fill="black"/>
<path fill-rule="evenodd" clip-rule="evenodd" d="M18.999 6.01169C19.5683 5.72293 19.9585 5.13203 19.9585 4.45V3.75C19.9585 1.67893 18.2795 0 16.2085 0H5.89764C3.82658 0 2.14764 1.67893 2.14764 3.75V4.45C2.14764 5.13203 2.5378 5.72293 3.1071 6.01168V9H4.6071V6.2H17.499V9.09C17.499 9.71628 17.0384 10.235 16.4375 10.3259C16.7164 10.7399 16.8948 11.2273 16.9377 11.7531C18.1232 11.4474 18.999 10.371 18.999 9.09V6.01169ZM18.4585 4.45C18.4585 4.58807 18.3465 4.7 18.2085 4.7H3.89764C3.75957 4.7 3.64764 4.58807 3.64764 4.45V3.75C3.64764 2.50736 4.655 1.5 5.89764 1.5H7.69494V2.81999C7.69494 3.2342 8.03073 3.56999 8.44494 3.56999C8.85915 3.56999 9.19494 3.2342 9.19494 2.81999V1.5H10.8132V2.81999C10.8132 3.2342 11.149 3.56999 11.5632 3.56999C11.9774 3.56999 12.3132 3.2342 12.3132 2.81999V1.5H13.9314V2.81999C13.9314 3.2342 14.2672 3.56999 14.6814 3.56999C15.0956 3.56999 15.4314 3.2342 15.4314 2.81999V1.5H16.2085C17.4511 1.5 18.4585 2.50736 18.4585 3.75V4.45Z" fill="black"/>
</svg>
