<svg width="24" height="25" viewBox="0 0 24 25" fill="none" xmlns="http://www.w3.org/2000/svg">
<path d="M8.67188 14.8108C8.67188 16.1008 9.66188 17.1408 10.8919 17.1408H13.4019C14.4719 17.1408 15.3419 16.2308 15.3419 15.1108C15.3419 13.8908 14.8119 13.4608 14.0219 13.1808L9.99187 11.7808C9.20187 11.5008 8.67188 11.0708 8.67188 9.8508C8.67188 8.7308 9.54187 7.8208 10.6119 7.8208H13.1219C14.3519 7.8208 15.3419 8.8608 15.3419 10.1508" stroke="#202020" stroke-width="1.5" stroke-linecap="round" stroke-linejoin="round"/>
<path d="M12 6.48096V18.481" stroke="#202020" stroke-width="1.5" stroke-linecap="round" stroke-linejoin="round"/>
<path d="M12 22.481C17.5228 22.481 22 18.0038 22 12.481C22 6.95811 17.5228 2.48096 12 2.48096C6.47715 2.48096 2 6.95811 2 12.481C2 18.0038 6.47715 22.481 12 22.481Z" stroke="#202020" stroke-width="1.5" stroke-linecap="round" stroke-linejoin="round"/>
</svg>
