<svg width="20" height="20" viewBox="0 0 20 20" fill="none" xmlns="http://www.w3.org/2000/svg">
<path d="M10 5.36658V8.14158" stroke="#444750" stroke-width="1.25" stroke-miterlimit="10" stroke-linecap="round"/>
<path d="M10.0166 1.66663C6.94998 1.66663 4.46664 4.14996 4.46664 7.21663V8.96663C4.46664 9.53329 4.23331 10.3833 3.94164 10.8666L2.88331 12.6333C2.23331 13.725 2.68331 14.9416 3.88331 15.3416C7.86664 16.6666 12.175 16.6666 16.1583 15.3416C17.2833 14.9666 17.7666 13.65 17.1583 12.6333L16.1 10.8666C15.8083 10.3833 15.575 9.52496 15.575 8.96663V7.21663C15.5666 4.16663 13.0666 1.66663 10.0166 1.66663Z" stroke="#444750" stroke-width="1.25" stroke-miterlimit="10" stroke-linecap="round"/>
<path d="M12.775 15.6833C12.775 17.2083 11.525 18.4583 10 18.4583C9.24167 18.4583 8.54167 18.1417 8.04167 17.6417C7.54167 17.1417 7.22501 16.4417 7.22501 15.6833" stroke="#444750" stroke-width="1.25" stroke-miterlimit="10"/>
</svg>
