<svg width="250" height="99" viewBox="0 0 250 99" fill="none" xmlns="http://www.w3.org/2000/svg">
<path fill-rule="evenodd" clip-rule="evenodd" d="M63 89H154C154.515 89 155.017 88.9476 155.5 88.8481C155.983 88.9476 156.485 89 157 89H209C212.866 89 216 86.0451 216 82.4C216 78.7549 212.866 75.8 209 75.8H203C199.134 75.8 196 72.8451 196 69.2C196 65.5549 199.134 62.6 203 62.6H222C225.866 62.6 229 59.6451 229 56C229 52.3549 225.866 49.4 222 49.4H200C203.866 49.4 207 46.4451 207 42.8C207 39.1549 203.866 36.2 200 36.2H136C139.866 36.2 143 33.2451 143 29.6C143 25.9549 139.866 23 136 23H79C75.134 23 72 25.9549 72 29.6C72 33.2451 75.134 36.2 79 36.2H39C35.134 36.2 32 39.1549 32 42.8C32 46.4451 35.134 49.4 39 49.4H64C67.866 49.4 71 52.3549 71 56C71 59.6451 67.866 62.6 64 62.6H24C20.134 62.6 17 65.5549 17 69.2C17 72.8451 20.134 75.8 24 75.8H63C59.134 75.8 56 78.7549 56 82.4C56 86.0451 59.134 89 63 89ZM226 89C229.866 89 233 86.0451 233 82.4C233 78.755 229.866 75.8 226 75.8C222.134 75.8 219 78.755 219 82.4C219 86.0451 222.134 89 226 89Z" fill="#E8F0FE"/>
<path fill-rule="evenodd" clip-rule="evenodd" d="M92 97C79.8497 97 70 87.3741 70 75.5C70 63.6259 79.8497 54 92 54C92.5167 54 93.0292 54.0174 93.537 54.0517C93.1842 52.0878 93 50.0654 93 48C93 29.2223 108.222 14 127 14C141.991 14 154.716 23.702 159.239 37.1695C160.31 37.0575 161.398 37 162.5 37C179.345 37 193 50.4315 193 67C193 82.7406 180.675 95.7273 165 96.9782V97H108.508H92ZM103.996 97H97.0314Z" fill="white"/>
<path d="M103.996 97H97.0314M92 97C79.8497 97 70 87.3741 70 75.5C70 63.6259 79.8497 54 92 54C92.5167 54 93.0292 54.0174 93.537 54.0517C93.1842 52.0878 93 50.0654 93 48C93 29.2223 108.222 14 127 14C141.991 14 154.716 23.702 159.239 37.1695C160.31 37.0575 161.398 37 162.5 37C179.345 37 193 50.4315 193 67C193 82.7406 180.675 95.7273 165 96.9782V97H108.508H92Z" stroke="#1F64E7" stroke-width="2.5" stroke-linecap="round"/>
<path fill-rule="evenodd" clip-rule="evenodd" d="M116.612 21.3426C116.612 53.5657 145.633 80.118 183 83.7029C178.317 89.4611 171.086 93.3675 162.847 93.9813V94H95.7431C87.6013 94 74 90.5697 74 75.5483C74 60.527 84.5742 57.0967 95.7431 57.0967C96.218 57.0967 96.6891 57.1116 97.1559 57.141C96.8316 55.4556 96.7746 53.7184 96.6623 51.9474C95.9038 39.9842 101.123 24.907 116.63 20C116.618 20.4473 116.612 20.8944 116.612 21.3426ZM127.116 71.7579C124.078 71.7579 121.614 74.1921 121.614 77.1949C121.614 80.1976 124.078 82.6318 127.116 82.6318C130.155 82.6318 132.618 80.1976 132.618 77.1949C132.618 74.1921 130.155 71.7579 127.116 71.7579Z" fill="#E8F0FE"/>
<path d="M127.5 83C130.538 83 133 80.5376 133 77.5C133 74.4624 130.538 72 127.5 72C124.462 72 122 74.4624 122 77.5C122 80.5376 124.462 83 127.5 83Z" stroke="#1F64E7" stroke-width="2.5"/>
<path d="M112 66L119 60.5068L112 55.2776" stroke="#1F64E7" stroke-width="2.5" stroke-linecap="round" stroke-linejoin="round"/>
<path d="M143 66L136 60.5068L143 55.2776" stroke="#1F64E7" stroke-width="2.5" stroke-linecap="round" stroke-linejoin="round"/>
<path d="M137 24C143.509 25.7226 148.648 30.8129 150.44 37.2932" stroke="#75A4FE" stroke-width="2.5" stroke-linecap="round"/>
<path d="M158 7C159.657 7 161 5.65685 161 4C161 2.34315 159.657 1 158 1C156.343 1 155 2.34315 155 4C155 5.65685 156.343 7 158 7Z" stroke="#75A4FE" stroke-width="2"/>
<path d="M189 23C190.657 23 192 21.6569 192 20C192 18.3431 190.657 17 189 17C187.343 17 186 18.3431 186 20C186 21.6569 187.343 23 189 23Z" fill="#75A4FE"/>
<path d="M165.757 14.7573L174.116 23.1156M174.243 14.7573L165.884 23.1156L174.243 14.7573Z" stroke="#75A4FE" stroke-width="2.5" stroke-linecap="round" stroke-linejoin="round"/>
<path d="M71.4038 32.5962L77.4038 38.5962M77.4038 32.5962L71.4038 38.5962L77.4038 32.5962Z" stroke="#75A4FE" stroke-width="2.5" stroke-linecap="round" stroke-linejoin="round"/>
<path d="M85 26C86.6569 26 88 24.6569 88 23C88 21.3431 86.6569 20 85 20C83.3431 20 82 21.3431 82 23C82 24.6569 83.3431 26 85 26Z" fill="#75A4FE"/>
</svg>
