<svg width="24" height="25" viewBox="0 0 24 25" fill="none" xmlns="http://www.w3.org/2000/svg">
<circle cx="12" cy="12.5" r="12" fill="black"/>
<path fill-rule="evenodd" clip-rule="evenodd" d="M14.9698 4.78704C14.9698 5.51845 14.6467 6.24986 14.1908 6.77759C13.7062 7.36091 12.8703 7.79604 12.2053 7.79613C12.1293 7.79613 12.0532 7.78681 12.0058 7.77758C11.9963 7.74055 11.9772 7.62939 11.9772 7.51832C11.9772 6.77759 12.3668 6.04618 12.7847 5.58326C13.3168 4.98148 14.2002 4.52779 14.9412 4.5C14.9603 4.58337 14.9698 4.68521 14.9698 4.78704ZM17.5832 9.39431C17.6016 9.38251 17.6143 9.3744 17.6202 9.36993C16.6322 7.99048 15.1312 7.95337 14.7131 7.95328C14.0744 7.95328 13.5027 8.17415 13.022 8.35983C12.6734 8.49449 12.3728 8.61064 12.1292 8.61064C11.8605 8.61064 11.5528 8.48945 11.2094 8.3542C10.7759 8.18345 10.2855 7.9903 9.74476 7.9903C7.92086 7.9903 6.06836 9.46244 6.06836 12.24C6.06836 13.9713 6.75233 15.7952 7.59782 16.971C8.32926 17.9709 8.96577 18.7857 9.87777 18.7857C10.3103 18.7857 10.6274 18.6545 10.9609 18.5166C11.3306 18.3636 11.7204 18.2024 12.3098 18.2024C12.9049 18.2024 13.2606 18.3538 13.6038 18.4998C13.9235 18.6358 14.2322 18.7672 14.7132 18.7672C15.7107 18.7672 16.3662 17.8877 16.9932 17.0081C17.6962 16.0082 17.9907 15.0267 18.0002 14.9805C17.9431 14.962 16.0337 14.2121 16.0337 12.0919C16.0337 10.3854 17.3344 9.55341 17.5832 9.39431Z" fill="white"/>
</svg>
